<?xml version="1.0" encoding="UTF-8"?>
<svg id="Layer_2" data-name="Layer 2" xmlns="http://www.w3.org/2000/svg" viewBox="0 0 100.28 24.97">
  <g id="Layer_1-2" data-name="Layer 1">
    <g>
      <path d="M22.99,2.07v20.37c0,1.14-.93,2.07-2.07,2.07h-2.48c-1.14,0-2.07-.93-2.07-2.07v-5.55c0-1.14-.93-2.07-2.07-2.07h-5.64c-1.14,0-2.07.93-2.07,2.07v5.55c0,1.14-.93,2.07-2.07,2.07h-2.48c-1.14,0-2.07-.93-2.07-2.07V2.07C0,.93.93,0,2.07,0h2.48c1.14,0,2.07.93,2.07,2.07v5.32c0,1.14.93,2.07,2.07,2.07h5.64c1.14,0,2.07-.93,2.07-2.07V2.07c0-1.14.93-2.07,2.07-2.07h2.48c1.14,0,2.07.93,2.07,2.07Z"/>
      <path d="M50.61,8.66v14.34c0,.83-.67,1.5-1.5,1.5h-3.3c-.83,0-1.5-.67-1.5-1.5h0c0-.63-.72-.42-1.28-.14-2.61,1.32-8.35,2.11-10.47,2.11-4.74,0-6.18-3.27-6.18-6.89v-9.42c0-.83.67-1.5,1.5-1.5h3.3c.83,0,1.5.67,1.5,1.5v6.13c0,2.34-.04,4.28,1.87,4.28s9.88-.2,9.76-3.93v-6.48c0-.83.67-1.5,1.5-1.5h3.3c.83,0,1.5.67,1.5,1.5Z"/>
      <path d="M71.42,15.36c0-4.7-3.07-8.67-8.87-8.67-5.41,0-9.45,3.93-9.45,9.41s3.97,8.87,9.53,8.87c3.88,0,6.76-1.59,8.1-4.48.38-.82-.17-1.78-1.07-1.86l-2.25-.2c-.78-.07-1.24.17-1.53.57-.63.88-1.62,1.27-3.01,1.27-1.01,0-1.93-.29-2.58-.88-.89-.79-.3-2.27.89-2.27h8.94c.72,0,1.31-.59,1.31-1.31v-.44ZM61.63,14.08c-1.48,0-2.09-1.55-1.14-2.29.48-.37,1.13-.59,1.98-.59.78,0,1.41.23,1.88.61.93.74.31,2.27-.89,2.27h-1.84Z"/>
      <path d="M91.57,15.36c0-4.7-3.07-8.67-8.87-8.67-5.41,0-9.45,3.93-9.45,9.41s3.97,8.87,9.53,8.87c3.89,0,6.78-1.6,8.11-4.5.37-.81-.17-1.75-1.06-1.84l-2.6-.24c-.47-.04-.91.18-1.18.56-.63.91-1.62,1.3-3.04,1.3-1.03,0-1.96-.3-2.62-.91-.86-.8-.29-2.24.88-2.24h9c.71,0,1.29-.58,1.29-1.29v-.46ZM81.47,14.08c-1.19,0-1.79-1.52-.86-2.26.49-.39,1.15-.62,2.01-.62.8,0,1.44.24,1.92.64.91.75.3,2.24-.88,2.24h-2.19Z"/>
      <rect x="93.59" y="17.81" width="6.69" height="6.69" rx="2.08" ry="2.08"/>
    </g>
  </g>
</svg>